<?xml version="1.0" encoding="UTF-8" standalone="yes"?>
<svg version="1.1" xmlns="http://www.w3.org/2000/svg" xmlns:xlink="http://www.w3.org/1999/xlink" x="0px" y="0px" viewBox="0 0 215 315" style="enable-background:new 0 0 215 315;" xml:space="preserve">
      <style type="text/css">.st0{fill:#4E47EF;}	.st1{fill:#4F46EC;}	.st2{fill:#4E49F1;}	.st3{opacity:0.4;}	.st4{fill:#B56EFF;}</style>
    <g id="color_index_1" fill="#4e47ef">
              <path d="M46.47,112.99l89.42,135.19l31.69-49.41c-17.07-24.87-63.62-99.31-89.1-133.68L46.47,112.99z"/>
        <path d="M114.19,274.75c-0.13-0.19-0.25-0.36-0.38-0.55L39.03,162.09c-0.28-0.49-10.51-16.58-10.79-17.07&#x9;&#x9;c-16.02,27.77-21.88,67.82-10.58,89.69l1.79,2.48l41.37,56.51l0-0.01C76.09,304.94,96.71,299.84,114.19,274.75z"/>
        <path d="M103.33,41.52l-0.5,0.76l80.19,121.85c16.22-28.03,29.63-55.67,18.23-77.74l0,0l-49.97-68.8&#x9;&#x9;C135.01,9.09,121,16.01,103.33,41.52z"/>
          </g>
    <g>
              <path class="st3" d="M20.07,238.01l-4.2-7.35c0,0-13.57-39.15,12.37-85.64c0.25,0.5,16.21,25.79,16.21,25.79&#x9;&#x9;C30.18,197.35,13.06,224.49,20.07,238.01z"/>
        <path class="st3" d="M96.37,90.58l-32.33,49.09l-17.57-26.69l32.01-47.9C81.41,69.07,93.29,86.36,96.37,90.58z"/>
        <path class="st3" d="M153.96,21.44c-6.8,1.86-21.36,15.45-34.92,35.01l-3.45,5.21l-13.01-19.38l0.5-0.75&#x9;&#x9;c17.1-24.68,31.57-32.56,48.2-23.94L153.96,21.44z"/>
        <path class="st3" d="M194.3,76.92l7.75,10.23c0,0,15.55,23.16-19.02,76.98c-0.25-0.5-13.1-20.01-13.1-20.01&#x9;&#x9;C184.19,117.57,201.31,90.44,194.3,76.92z"/>
        <path class="st3" d="M119.71,223.73l32.01-49l15.86,24.04l-31.44,49.41C133.2,244.22,122.78,227.95,119.71,223.73z"/>
        <path class="st3" d="M60.81,293.29c6.8-1.86,21.36-15.45,34.92-35.01l3.72-5.62l14.74,22.09l-0.99,1.39&#x9;&#x9;c-17.1,24.68-33.15,25.24-47.43,20.54L60.81,293.29z"/>
          </g>
    <g id="color_index_0" fill="#b56eff">
              <path d="M211.11,99l-13.92-18.21l0,0c11.41,22.07-2.1,49.8-18.32,77.83l-14.17,21.53l-35.1,53.34l-21.86,33.21&#x9;&#x9;c-0.13,0.19-0.26,0.37-0.39,0.55c-17.47,25.09-30.39,34.87-46.54,26.44l0,0.01l10.03,13.96c3.2,4.6,8.44,7.34,14.04,7.34h0.18&#x9;&#x9;h44.39h0.51c5.43,0,10.54-2.58,13.76-6.94l67.91-91.95c2.17-2.94,3.35-6.51,3.35-10.16v-96.09C215,105.9,213.62,102.06,211.11,99z"/>
        <path d="M35.68,157.15c0.15-0.26,0.3-0.52,0.45-0.78l21.36-32.45l32.05-48.7l17.22-26.16l0.5-0.76&#x9;&#x9;c17.67-25.51,30.43-35.36,46.7-26.86l-9.81-14.1C140.95,2.74,135.7,0,130.1,0h-1.61H85.02c-0.97,0-1.92,0.11-2.86,0.27&#x9;&#x9;c-4.32,0.74-8.25,3.09-10.9,6.67L50.69,34.8L16.97,80.45L3.35,98.89C1.17,101.83,0,105.4,0,109.06v96.09&#x9;&#x9;c0,3.96,1.37,7.8,3.89,10.86l13.05,17.73l0.72,0.98C6.36,212.84,19.66,184.93,35.68,157.15z"/>
          </g>
  </svg>